<svg width="256" height="256" viewBox="0 0 256 256" fill="none" xmlns="http://www.w3.org/2000/svg">
<rect x="17" y="17" width="223" height="223" rx="45" fill="#D9D9D9"/>
<path fill-rule="evenodd" clip-rule="evenodd" d="M69.5355 68.5355C66.3857 65.3857 68.6165 60 73.0711 60H183.929C188.383 60 190.614 65.3857 187.464 68.5355L128.5 127.5L69.5355 68.5355ZM100.835 75C99.4982 75 98.8289 76.6157 99.7739 77.5607L128.5 106.287L157.226 77.5607C158.171 76.6157 157.502 75 156.165 75H100.835ZM128.5 127.5L69.5355 186.464C66.3857 189.614 68.6165 195 73.0711 195H183.929C188.383 195 190.614 189.614 187.464 186.464L128.5 127.5ZM156.165 180C157.502 180 158.171 178.384 157.226 177.439L128.5 148.713L99.7739 177.439C98.8289 178.384 99.4982 180 100.835 180H156.165Z" fill="#1E1E1E"/>
</svg>
